<svg width="1200" height="1480" viewBox="0 0 1200 1480" fill="none" xmlns="http://www.w3.org/2000/svg">
  <rect width="1200" height="1480" fill="#F6F1E8"/>
  <rect x="72" y="72" width="1056" height="1336" rx="64" fill="url(#paint0_linear)"/>
  <path d="M194 1170C340 982 462 910 604 910C745 910 860 980 1008 1170" stroke="#C5A46D" stroke-width="2"/>
  <path d="M246 1258C378 1066 479 1000 604 1000C729 1000 834 1068 962 1258" stroke="#3F4B37" stroke-opacity="0.52" stroke-width="2"/>
  <ellipse cx="302" cy="430" rx="150" ry="214" fill="#E5E2D5"/>
  <ellipse cx="912" cy="478" rx="174" ry="246" fill="#DEE3D6"/>
  <ellipse cx="570" cy="330" rx="74" ry="104" fill="#C5A46D" fill-opacity="0.2"/>
  <ellipse cx="434" cy="596" rx="118" ry="164" fill="#FFFFFF" fill-opacity="0.72"/>
  <ellipse cx="768" cy="678" rx="132" ry="178" fill="#FFFFFF" fill-opacity="0.7"/>
  <ellipse cx="602" cy="836" rx="204" ry="94" fill="#657258" fill-opacity="0.18"/>
  <path d="M202 860C342 776 468 740 606 740C744 740 870 778 1002 860" stroke="#C5A46D" stroke-opacity="0.45" stroke-width="3"/>
  <defs>
    <linearGradient id="paint0_linear" x1="120" y1="92" x2="1074" y2="1376" gradientUnits="userSpaceOnUse">
      <stop stop-color="#FFFDF9"/>
      <stop offset="1" stop-color="#F0E8DB"/>
    </linearGradient>
  </defs>
</svg>
