<svg width="1200" height="920" viewBox="0 0 1200 920" fill="none" xmlns="http://www.w3.org/2000/svg">
  <rect width="1200" height="920" fill="#111111"/>
  <rect x="54" y="54" width="1092" height="812" rx="48" fill="url(#paint0_linear)"/>
  <circle cx="924" cy="246" r="168" fill="#C5A46D" fill-opacity="0.16"/>
  <circle cx="314" cy="690" r="188" fill="#657258" fill-opacity="0.22"/>
  <rect x="190" y="502" width="820" height="110" rx="55" fill="#F6F1E8" fill-opacity="0.22"/>
  <rect x="250" y="324" width="700" height="74" rx="37" fill="#FFFFFF" fill-opacity="0.16"/>
  <path d="M178 694H1020" stroke="#C5A46D" stroke-opacity="0.52" stroke-width="2"/>
  <path d="M266 620C350 566 438 540 560 540C684 540 806 582 926 664" stroke="#FFFFFF" stroke-opacity="0.3" stroke-width="2"/>
  <path d="M378 760C476 722 550 706 642 706C734 706 820 726 898 760" stroke="#FFFFFF" stroke-opacity="0.22" stroke-width="2"/>
  <defs>
    <linearGradient id="paint0_linear" x1="120" y1="90" x2="1062" y2="822" gradientUnits="userSpaceOnUse">
      <stop stop-color="#26211B"/>
      <stop offset="1" stop-color="#4D4334"/>
    </linearGradient>
  </defs>
</svg>
